<?xml version="1.0" encoding="UTF-8" standalone="no"?>
<!-- Created with Inkscape (http://www.inkscape.org/) -->

<svg
   xmlns:osb="http://www.openswatchbook.org/uri/2009/osb"
   xmlns:dc="http://purl.org/dc/elements/1.1/"
   xmlns:cc="http://creativecommons.org/ns#"
   xmlns:rdf="http://www.w3.org/1999/02/22-rdf-syntax-ns#"
   xmlns:svg="http://www.w3.org/2000/svg"
   xmlns="http://www.w3.org/2000/svg"
   xmlns:xlink="http://www.w3.org/1999/xlink"
   xmlns:sodipodi="http://sodipodi.sourceforge.net/DTD/sodipodi-0.dtd"
   xmlns:inkscape="http://www.inkscape.org/namespaces/inkscape"
   width="1000"
   height="500"
   viewBox="0 0 1000 500.00001"
   id="svg2"
   version="1.1"
   inkscape:version="0.91 r13725"
   sodipodi:docname="subduction_5.svg">
  <defs
     id="defs4">
    <linearGradient
       id="linearGradient5694"
       osb:paint="solid">
      <stop
         style="stop-color:#ffffff;stop-opacity:1;"
         offset="0"
         id="stop5696" />
    </linearGradient>
    <linearGradient
       id="linearGradient4226"
       osb:paint="solid">
      <stop
         style="stop-color:#000000;stop-opacity:1;"
         offset="0"
         id="stop4228" />
    </linearGradient>
    <linearGradient
       inkscape:collect="always"
       id="linearGradient4202">
      <stop
         style="stop-color:#f4e3d7;stop-opacity:1"
         offset="0"
         id="stop4204" />
      <stop
         style="stop-color:#ffffff;stop-opacity:1"
         offset="1"
         id="stop4206" />
    </linearGradient>
    <inkscape:perspective
       sodipodi:type="inkscape:persp3d"
       inkscape:vp_x="0 : 250 : 1"
       inkscape:vp_y="0 : 1000 : 0"
       inkscape:vp_z="1000 : 250 : 1"
       inkscape:persp3d-origin="500 : 166.66667 : 1"
       id="perspective4336" />
    <linearGradient
       inkscape:collect="always"
       xlink:href="#linearGradient4202"
       id="linearGradient4208"
       x1="-316.65302"
       y1="160.24864"
       x2="-267.68033"
       y2="110.25117"
       gradientUnits="userSpaceOnUse" />
  </defs>
  <sodipodi:namedview
     id="base"
     pagecolor="#ffffff"
     bordercolor="#666666"
     borderopacity="1.0"
     inkscape:pageopacity="0.0"
     inkscape:pageshadow="2"
     inkscape:zoom="1.1200571"
     inkscape:cx="394.25554"
     inkscape:cy="319.59964"
     inkscape:document-units="px"
     inkscape:current-layer="layer7"
     showgrid="false"
     units="px"
     inkscape:window-width="2048"
     inkscape:window-height="1027"
     inkscape:window-x="0"
     inkscape:window-y="1"
     inkscape:window-maximized="1"
     showborder="false" />
  <metadata
     id="metadata7">
    <rdf:RDF>
      <cc:Work
         rdf:about="">
        <dc:format>image/svg+xml</dc:format>
        <dc:type
           rdf:resource="http://purl.org/dc/dcmitype/StillImage" />
        <dc:title></dc:title>
      </cc:Work>
    </rdf:RDF>
  </metadata>
  <g
     inkscape:label="Layer 1"
     inkscape:groupmode="layer"
     id="layer1"
     transform="translate(0,-552.36216)"
     style="display:inline">
    <flowRoot
       xml:space="preserve"
       id="flowRoot4293"
       style="font-style:normal;font-weight:normal;font-size:40px;line-height:125%;font-family:sans-serif;letter-spacing:0px;word-spacing:0px;fill:#000000;fill-opacity:1;stroke:none;stroke-width:1px;stroke-linecap:butt;stroke-linejoin:miter;stroke-opacity:1"
       transform="translate(0,552.36216)"><flowRegion
         id="flowRegion4295"><rect
           id="rect4297"
           width="379.21024"
           height="75.493614"
           x="312.4274"
           y="109.7561" /></flowRegion><flowPara
         id="flowPara4299" /></flowRoot>    <flowRoot
       xml:space="preserve"
       id="flowRoot4309"
       style="font-style:normal;font-weight:normal;font-size:40px;line-height:125%;font-family:sans-serif;letter-spacing:0px;word-spacing:0px;fill:#000000;fill-opacity:1;stroke:none;stroke-width:1px;stroke-linecap:butt;stroke-linejoin:miter;stroke-opacity:1"
       transform="translate(0,552.36216)"><flowRegion
         id="flowRegion4311"><rect
           id="rect4313"
           width="356.56213"
           height="58.652729"
           x="362.36932"
           y="92.334496" /></flowRegion><flowPara
         id="flowPara4315" /></flowRoot>  </g>
  <g
     inkscape:groupmode="layer"
     id="layer2"
     inkscape:label="Layer 2"
     style="display:inline" />
  <g
     inkscape:groupmode="layer"
     id="layer3"
     inkscape:label="Layer 3"
     style="display:inline">
    <flowRoot
       xml:space="preserve"
       id="flowRoot4252"
       style="font-style:normal;font-weight:normal;font-size:25px;line-height:125%;font-family:sans-serif;letter-spacing:0px;word-spacing:0px;fill:#000000;fill-opacity:1;stroke:#000000;stroke-width:1px;stroke-linecap:butt;stroke-linejoin:miter;stroke-opacity:1"><flowRegion
         id="flowRegion4254"><rect
           id="rect4256"
           width="307.78165"
           height="50.522648"
           x="46.457607"
           y="395.4704"
           style="font-size:25px;stroke:#000000;stroke-opacity:1" /></flowRegion><flowPara
         id="flowPara4258" /></flowRoot>  </g>
  <g
     inkscape:groupmode="layer"
     id="layer4"
     inkscape:label="Layer 4"
     style="display:inline">
    <g
       id="g4208"
       transform="translate(2.6784349,-31.248407)">
      <path
         sodipodi:nodetypes="ccccc"
         inkscape:connector-curvature="0"
         id="path3408"
         d="m 970,1022.3622 -690,0 0,-300.00004 c 203.25204,0 562.24158,84.43662 690,200 z"
         style="display:inline;fill:#f4e3d7;fill-rule:evenodd;stroke:none;stroke-width:1px;stroke-linecap:butt;stroke-linejoin:miter;stroke-opacity:1"
         transform="translate(0,-552.36216)" />
      <rect
         y="722.36218"
         x="30"
         height="300"
         width="251"
         id="rect4325"
         style="display:inline;fill:#f4e3d7;stroke:none;stroke-width:2.0309999;stroke-miterlimit:4;stroke-dasharray:0.2031, 0.2031;stroke-dashoffset:0;stroke-opacity:1"
         transform="translate(0,-552.36216)" />
      <path
         sodipodi:nodetypes="cccc"
         inkscape:connector-curvature="0"
         id="path3364-2"
         d="m 280,170 c 203.25204,0 562.24158,84.43662 690,200 L 970,70 C 716.80603,70 446.28339,56.32985 373.11266,174.21603"
         style="display:inline;fill:#eef4d7;fill-rule:evenodd;stroke:none;stroke-width:1px;stroke-linecap:butt;stroke-linejoin:miter;stroke-opacity:1" />
      <path
         sodipodi:nodetypes="ccc"
         inkscape:connector-curvature="0"
         id="path4331"
         d="m 30,170 0,-70 480.732,0"
         style="display:inline;fill:none;fill-rule:evenodd;stroke:none;stroke-width:1px;stroke-linecap:butt;stroke-linejoin:miter;stroke-opacity:1" />
      <path
         inkscape:connector-curvature="0"
         id="path4250"
         d="M 618.48813,301.72269 C 659.53135,321.94683 694.40573,343.8488 720,367"
         style="display:inline;fill:none;fill-rule:evenodd;stroke:none;stroke-width:3;stroke-linecap:butt;stroke-linejoin:miter;stroke-miterlimit:4;stroke-dasharray:none;stroke-opacity:1" />
      <path
         inkscape:connector-curvature="0"
         id="path3364-2-6"
         d="m 30,167 c 49.635546,0 108.55881,5.03555 171.13407,14.33025"
         style="display:inline;fill:none;fill-rule:evenodd;stroke:none;stroke-width:3;stroke-linecap:butt;stroke-linejoin:miter;stroke-miterlimit:4;stroke-dasharray:none;stroke-opacity:1" />
      <path
         inkscape:connector-curvature="0"
         id="path4333"
         d="m 358.54393,171.81331 c -38.6566,-3.4201 -55.9089,-3.74538 -199.11899,-3.75423 l -128.945705,-0.008 0,-33.77525 0,-33.77526 226.483585,0.008 226.48359,0.008 -8.21782,2.76035 c -45.41932,15.25628 -79.08193,37.70165 -98.8021,65.8787 -1.96689,2.81038 -3.13443,3.91983 -4.05765,3.85579 -0.71289,-0.0494 -6.9341,-0.58873 -13.82491,-1.19839 z"
         style="display:inline;fill:#c8ffff;fill-opacity:1;stroke:none;stroke-width:3;stroke-miterlimit:4;stroke-dasharray:none;stroke-dashoffset:0;stroke-opacity:1" />
      <path
         sodipodi:nodetypes="cc"
         inkscape:connector-curvature="0"
         id="path4329"
         d="m 30,822.36216 250,0"
         style="display:inline;fill:none;fill-rule:evenodd;stroke:#000000;stroke-width:3;stroke-linecap:butt;stroke-linejoin:miter;stroke-miterlimit:4;stroke-dasharray:none;stroke-opacity:1"
         transform="translate(0,-552.36216)" />
      <path
         sodipodi:nodetypes="cc"
         inkscape:connector-curvature="0"
         id="path3364"
         d="m 280,270 c 203.25204,0 562.24158,84.43666 690,200.00004"
         style="display:inline;fill:none;fill-rule:evenodd;stroke:#000000;stroke-width:3;stroke-linecap:butt;stroke-linejoin:miter;stroke-miterlimit:4;stroke-dasharray:none;stroke-opacity:1" />
      <path
         sodipodi:nodetypes="cc"
         inkscape:connector-curvature="0"
         id="path3364-5"
         d="m 280,170 c 203.25204,0 562.24158,84.43662 690,200"
         style="display:inline;fill:none;fill-rule:evenodd;stroke:#000000;stroke-width:3;stroke-linecap:butt;stroke-linejoin:miter;stroke-miterlimit:4;stroke-dasharray:none;stroke-opacity:1" />
      <path
         sodipodi:nodetypes="cc"
         inkscape:connector-curvature="0"
         id="path4327"
         d="m 30,722.36216 250,0"
         style="display:inline;fill:none;fill-rule:evenodd;stroke:#000000;stroke-width:3;stroke-linecap:butt;stroke-linejoin:miter;stroke-miterlimit:4;stroke-dasharray:none;stroke-opacity:1"
         transform="translate(0,-552.36216)" />
      <path
         inkscape:connector-curvature="0"
         id="path4243"
         d="m 451.13439,181.43025 c 50.64975,7.52333 103.69215,17.8371 156.13857,30.52958"
         style="display:inline;fill:#0000ff;fill-rule:evenodd;stroke:#009600;stroke-width:3;stroke-linecap:butt;stroke-linejoin:miter;stroke-miterlimit:4;stroke-dasharray:none;stroke-opacity:1" />
      <path
         inkscape:connector-curvature="0"
         id="path4245"
         d="m 607.27283,211.85983 c 42.33293,10.24494 84.27758,22.03965 124.26226,35.16761"
         style="display:inline;fill:none;fill-rule:evenodd;stroke:#ff0000;stroke-width:3;stroke-linecap:butt;stroke-linejoin:miter;stroke-miterlimit:4;stroke-dasharray:none;stroke-opacity:1" />
      <path
         inkscape:connector-curvature="0"
         id="path4248"
         d="m 731.53491,247.02744 c 49.68198,16.31183 96.33803,34.68203 136.95323,54.69525"
         style="display:inline;fill:none;fill-rule:evenodd;stroke:#0000ff;stroke-width:3;stroke-linecap:butt;stroke-linejoin:miter;stroke-miterlimit:4;stroke-dasharray:none;stroke-opacity:1" />
      <path
         sodipodi:nodetypes="cc"
         inkscape:connector-curvature="0"
         id="path4223"
         d="m 730,245 240,0"
         style="display:inline;fill:none;fill-rule:evenodd;stroke:#000000;stroke-width:3;stroke-linecap:butt;stroke-linejoin:miter;stroke-miterlimit:4;stroke-dasharray:9, 9;stroke-dashoffset:0;stroke-opacity:1" />
    </g>
  </g>
  <g
     inkscape:groupmode="layer"
     id="layer5"
     inkscape:label="Layer 5"
     style="display:inline" />
  <g
     inkscape:groupmode="layer"
     id="layer6"
     inkscape:label="Layer 6" />
  <g
     inkscape:groupmode="layer"
     id="layer7"
     inkscape:label="Layer 7">
    <g
       id="g5797"
       transform="translate(1098.1584,98.209277)">
      <path
         id="path4224"
         d="M -397.77431,27.389322 C -292.48172,63.822349 -193.33,132.34738 -101.69512,206.83234"
         style="display:inline;fill:none;fill-rule:evenodd;stroke:#000000;stroke-width:3;stroke-linecap:butt;stroke-linejoin:miter;stroke-miterlimit:4;stroke-dasharray:none;stroke-opacity:1"
         inkscape:connector-curvature="0" />
      <path
         id="path4231"
         d="m -475.53063,106.90212 c 126.17259,22.51869 244.44807,97.3098 352.64425,182.92875"
         style="display:inline;fill:none;fill-rule:evenodd;stroke:#000000;stroke-width:3;stroke-linecap:butt;stroke-linejoin:miter;stroke-miterlimit:4;stroke-dasharray:none;stroke-opacity:1"
         inkscape:connector-curvature="0" />
      <path
         id="path4238"
         d="m -498.52258,203.39746 c 115.6582,14.59415 224.88851,74.5352 326.04743,148.60902"
         style="display:inline;fill:none;fill-rule:evenodd;stroke:#000000;stroke-width:3;stroke-linecap:butt;stroke-linejoin:miter;stroke-miterlimit:4;stroke-dasharray:none;stroke-opacity:1"
         inkscape:connector-curvature="0" />
      <ellipse
         ry="198.70352"
         rx="198.70351"
         cy="200"
         cx="-300"
         id="path4242"
         style="fill:none;fill-opacity:1;stroke:#000000;stroke-width:2.59296775;stroke-miterlimit:4;stroke-dasharray:none;stroke-dashoffset:0;stroke-opacity:1" />
      <path
         inkscape:connector-curvature="0"
         id="path4194"
         d="m -320.36274,395.99399 c -74.00884,-8.24186 -136.29452,-55.99662 -163.37812,-125.26287 -6.70322,-17.14345 -11.37941,-37.95845 -12.62218,-56.18467 -0.55653,-8.16206 -0.4879,-8.70479 1.10065,-8.70299 3.53964,0.004 29.04533,4.64797 42.31713,7.7049 82.40401,18.98031 168.57968,61.10963 264.07043,129.09799 l 13.63677,9.70923 -4.4814,3.54233 c -7.97613,6.30478 -21.64389,14.80898 -32.61307,20.29216 -18.1492,9.07228 -34.68295,14.47511 -55.35432,18.08848 -12.1854,2.13001 -40.63396,3.05647 -52.67589,1.71544 z"
         style="fill:#f4e3d7;fill-opacity:1;stroke:#000000;stroke-width:2.67843485;stroke-miterlimit:4;stroke-dasharray:8.03530463, 8.03530463;stroke-dashoffset:0;stroke-opacity:0" />
      <path
         inkscape:connector-curvature="0"
         id="path4196"
         d="m -181.97693,342.78937 c -14.57533,-10.83733 -59.35842,-40.43903 -78.75002,-52.05391 -77.80178,-46.60049 -153.3629,-76.2223 -221.23469,-86.72941 -6.87465,-1.06426 -13.00157,-2.07845 -13.61538,-2.25377 -2.53179,-0.72313 -0.86907,-24.13219 3.03885,-42.78335 4.25549,-20.30996 15.58691,-49.55104 19.20188,-49.55104 0.91977,0 6.38623,1.01472 12.14768,2.25494 86.18844,18.55301 175.29244,61.54912 274.1019,132.2647 19.48463,13.94469 49.1224,36.22354 61.68632,46.36991 0.6355,0.51321 -8.05323,15.16105 -13.57748,22.88949 -3.06917,4.2938 -7.88874,10.57815 -10.71014,13.96524 -5.69193,6.83314 -21.54009,22.46628 -22.65113,22.34382 -0.39032,-0.043 -4.72733,-3.0655 -9.63779,-6.71662 z"
         style="fill:#f4e3d7;fill-opacity:1;stroke:#000000;stroke-width:2.67843485;stroke-miterlimit:4;stroke-dasharray:8.03530463, 8.03530463;stroke-dashoffset:0;stroke-opacity:0" />
      <path
         inkscape:connector-curvature="0"
         id="path4198"
         d="m -129.74745,282.05169 c -8.56165,-7.01089 -49.02057,-37.16908 -63.10803,-47.04089 -97.92867,-68.62373 -186.55317,-110.54723 -269.4643,-127.46912 -5.40151,-1.10243 -9.94925,-2.09661 -10.10608,-2.20928 -0.51033,-0.36664 8.06201,-14.041814 13.23585,-21.114718 14.33496,-19.596604 31.04504,-35.478607 51.57217,-49.016495 l 9.16855,-6.046768 8.24127,2.989944 c 82.09855,29.785444 168.96686,82.086327 271.44613,163.429847 l 15.74712,12.49936 -0.4725,5.35687 c -2.16994,24.60082 -7.57557,46.22748 -16.68125,66.73767 -1.47153,3.31456 -3.12393,5.99906 -3.67199,5.96555 -0.54807,-0.0335 -3.20619,-1.87039 -5.90694,-4.08197 z"
         style="fill:url(#linearGradient4208);fill-opacity:1;stroke:#000000;stroke-width:2.67843485;stroke-miterlimit:4;stroke-dasharray:8.03530463, 8.03530463;stroke-dashoffset:0;stroke-opacity:0" />
      <path
         id="path4200"
         d="M -117.24809,191.9016 C -210.0398,117.12661 -303.17117,60.520519 -381.54473,31.259707 c -6.12466,-2.286644 -11.2982,-4.31363 -11.49674,-4.504411 -0.83394,-0.801313 19.14517,-9.529923 30.48479,-13.31841 55.18841,-18.43805 114.93,-11.9070589 164.22507,17.953194 43.76064,26.507805 75.938,69.56234 88.67516,118.65073 1.65637,6.38361 3.63288,15.63306 4.39225,20.55433 1.32467,8.58493 2.96286,32.62687 2.2154,32.51303 -0.19839,-0.0302 -6.58807,-5.07317 -14.19929,-11.20657 z"
         style="fill:#eef4d7;fill-opacity:1;stroke:#000000;stroke-width:2.67843485;stroke-miterlimit:4;stroke-dasharray:8.03530463, 8.03530463;stroke-dashoffset:0;stroke-opacity:0"
         inkscape:connector-curvature="0" />
      <flowRoot
         transform="translate(204.45387,215.1676)"
         style="font-style:normal;font-variant:normal;font-weight:normal;font-stretch:normal;font-size:25px;line-height:125%;font-family:sans-serif;-inkscape-font-specification:'sans-serif, Normal';text-align:start;letter-spacing:0px;word-spacing:0px;writing-mode:lr-tb;text-anchor:start;fill:#000000;fill-opacity:1;stroke:none;stroke-width:1px;stroke-linecap:butt;stroke-linejoin:miter;stroke-opacity:1"
         id="flowRoot5720"
         xml:space="preserve"><flowRegion
           id="flowRegion5722"><rect
             style="font-style:normal;font-variant:normal;font-weight:normal;font-stretch:normal;font-size:25px;line-height:125%;font-family:sans-serif;-inkscape-font-specification:'sans-serif, Normal';text-align:start;writing-mode:lr-tb;text-anchor:start"
             y="-190.14339"
             x="-571.39941"
             height="76.781799"
             width="403.55084"
             id="rect5724" /></flowRegion><flowPara
           id="flowPara5728">Mantle wedge</flowPara></flowRoot>      <flowRoot
         transform="translate(-133.92174,258.91537)"
         style="font-style:normal;font-weight:normal;font-size:25px;line-height:125%;font-family:sans-serif;letter-spacing:0px;word-spacing:0px;fill:#000000;fill-opacity:1;stroke:none;stroke-width:1px;stroke-linecap:butt;stroke-linejoin:miter;stroke-opacity:1"
         id="flowRoot5730"
         xml:space="preserve"><flowRegion
           id="flowRegion5732"><rect
             style="font-size:25px"
             y="-111.57597"
             x="-147.31392"
             height="91.959595"
             width="390.15869"
             id="rect5734" /></flowRegion><flowPara
           id="flowPara5736">Eclogitization</flowPara></flowRoot>      <path
         id="path5700"
         d="m -262.48662,112.13612 20,-29.999999 -14.9,-10 49.9,-10 10,49.999999 -15,-10 -20,30 z"
         style="fill:#ffffff;fill-rule:evenodd;stroke:#000000;stroke-width:3;stroke-linecap:butt;stroke-linejoin:miter;stroke-miterlimit:4;stroke-dasharray:none;stroke-opacity:1"
         inkscape:connector-curvature="0" />
    </g>
  </g>
</svg>
