<?xml version="1.0" encoding="UTF-8" standalone="no"?>
<!-- Created with Inkscape (http://www.inkscape.org/) -->

<svg
   xmlns:dc="http://purl.org/dc/elements/1.1/"
   xmlns:cc="http://creativecommons.org/ns#"
   xmlns:rdf="http://www.w3.org/1999/02/22-rdf-syntax-ns#"
   xmlns:svg="http://www.w3.org/2000/svg"
   xmlns="http://www.w3.org/2000/svg"
   xmlns:sodipodi="http://sodipodi.sourceforge.net/DTD/sodipodi-0.dtd"
   xmlns:inkscape="http://www.inkscape.org/namespaces/inkscape"
   width="1100"
   height="600"
   viewBox="0 0 1100 600.00001"
   id="svg2"
   version="1.1"
   inkscape:version="0.91 r13725"
   sodipodi:docname="subduction_6.svg">
  <defs
     id="defs4">
    <inkscape:perspective
       sodipodi:type="inkscape:persp3d"
       inkscape:vp_x="0 : 250 : 1"
       inkscape:vp_y="0 : 1000 : 0"
       inkscape:vp_z="1000 : 250 : 1"
       inkscape:persp3d-origin="500 : 166.66667 : 1"
       id="perspective4336" />
  </defs>
  <sodipodi:namedview
     id="base"
     pagecolor="#ffffff"
     bordercolor="#666666"
     borderopacity="1.0"
     inkscape:pageopacity="0.0"
     inkscape:pageshadow="2"
     inkscape:zoom="1.0762488"
     inkscape:cx="498.0566"
     inkscape:cy="306.57578"
     inkscape:document-units="px"
     inkscape:current-layer="layer6"
     showgrid="false"
     units="px"
     inkscape:window-width="2048"
     inkscape:window-height="1027"
     inkscape:window-x="0"
     inkscape:window-y="1"
     inkscape:window-maximized="1"
     showborder="false" />
  <metadata
     id="metadata7">
    <rdf:RDF>
      <cc:Work
         rdf:about="">
        <dc:format>image/svg+xml</dc:format>
        <dc:type
           rdf:resource="http://purl.org/dc/dcmitype/StillImage" />
        <dc:title></dc:title>
      </cc:Work>
    </rdf:RDF>
  </metadata>
  <g
     inkscape:label="Layer 1"
     inkscape:groupmode="layer"
     id="layer1"
     transform="translate(0,-452.36216)"
     style="display:inline">
    <flowRoot
       xml:space="preserve"
       id="flowRoot4293"
       style="font-style:normal;font-weight:normal;font-size:40px;line-height:125%;font-family:sans-serif;letter-spacing:0px;word-spacing:0px;fill:#000000;fill-opacity:1;stroke:none;stroke-width:1px;stroke-linecap:butt;stroke-linejoin:miter;stroke-opacity:1"
       transform="translate(0,552.36216)"><flowRegion
         id="flowRegion4295"><rect
           id="rect4297"
           width="379.21024"
           height="75.493614"
           x="312.4274"
           y="109.7561" /></flowRegion><flowPara
         id="flowPara4299" /></flowRoot>    <flowRoot
       xml:space="preserve"
       id="flowRoot4309"
       style="font-style:normal;font-weight:normal;font-size:40px;line-height:125%;font-family:sans-serif;letter-spacing:0px;word-spacing:0px;fill:#000000;fill-opacity:1;stroke:none;stroke-width:1px;stroke-linecap:butt;stroke-linejoin:miter;stroke-opacity:1"
       transform="translate(0,552.36216)"><flowRegion
         id="flowRegion4311"><rect
           id="rect4313"
           width="356.56213"
           height="58.652729"
           x="362.36932"
           y="92.334496" /></flowRegion><flowPara
         id="flowPara4315" /></flowRoot>  </g>
  <g
     inkscape:groupmode="layer"
     id="layer2"
     inkscape:label="Layer 2"
     style="display:inline"
     transform="translate(0,100)" />
  <g
     inkscape:groupmode="layer"
     id="layer3"
     inkscape:label="Layer 3"
     style="display:inline"
     transform="translate(0,100)">
    <flowRoot
       xml:space="preserve"
       id="flowRoot4252"
       style="font-style:normal;font-weight:normal;font-size:25px;line-height:125%;font-family:sans-serif;letter-spacing:0px;word-spacing:0px;fill:#000000;fill-opacity:1;stroke:#000000;stroke-width:1px;stroke-linecap:butt;stroke-linejoin:miter;stroke-opacity:1"><flowRegion
         id="flowRegion4254"><rect
           id="rect4256"
           width="307.78165"
           height="50.522648"
           x="46.457607"
           y="395.4704"
           style="font-size:25px;stroke:#000000;stroke-opacity:1" /></flowRegion><flowPara
         id="flowPara4258" /></flowRoot>  </g>
  <g
     inkscape:groupmode="layer"
     id="layer4"
     inkscape:label="Layer 4"
     style="display:inline"
     transform="translate(0,100)">
    <g
       id="g4210"
       transform="translate(-22.299676,-152.38112)">
      <path
         sodipodi:nodetypes="ccccc"
         inkscape:connector-curvature="0"
         id="path3408"
         d="m 970,1022.3622 -690,0 0,-300.00004 c 203.25204,0 562.24158,84.43662 690,200 z"
         style="display:inline;fill:#f4e3d7;fill-rule:evenodd;stroke:none;stroke-width:1px;stroke-linecap:butt;stroke-linejoin:miter;stroke-opacity:1"
         transform="translate(0,-552.36216)" />
      <rect
         y="722.36218"
         x="30"
         height="300"
         width="251"
         id="rect4325"
         style="display:inline;fill:#f4e3d7;stroke:none;stroke-width:2.0309999;stroke-miterlimit:4;stroke-dasharray:0.2031, 0.2031;stroke-dashoffset:0;stroke-opacity:1"
         transform="translate(0,-552.36216)" />
      <path
         sodipodi:nodetypes="cccc"
         inkscape:connector-curvature="0"
         id="path3364-2"
         d="m 280,170 c 203.25204,0 562.24158,84.43662 690,200 L 970,70 C 716.80603,70 446.28339,56.32985 373.11266,174.21603"
         style="display:inline;fill:#eef4d7;fill-rule:evenodd;stroke:none;stroke-width:1px;stroke-linecap:butt;stroke-linejoin:miter;stroke-opacity:1" />
      <path
         sodipodi:nodetypes="ccc"
         inkscape:connector-curvature="0"
         id="path4331"
         d="m 30,170 0,-70 480.732,0"
         style="display:inline;fill:none;fill-rule:evenodd;stroke:none;stroke-width:1px;stroke-linecap:butt;stroke-linejoin:miter;stroke-opacity:1" />
      <path
         inkscape:connector-curvature="0"
         id="path4250"
         d="M 618.48813,301.72269 C 659.53135,321.94683 694.40573,343.8488 720,367"
         style="display:inline;fill:none;fill-rule:evenodd;stroke:none;stroke-width:3;stroke-linecap:butt;stroke-linejoin:miter;stroke-miterlimit:4;stroke-dasharray:none;stroke-opacity:1" />
      <path
         inkscape:connector-curvature="0"
         id="path3364-2-6"
         d="m 30,167 c 49.635546,0 108.55881,5.03555 171.13407,14.33025"
         style="display:inline;fill:none;fill-rule:evenodd;stroke:none;stroke-width:3;stroke-linecap:butt;stroke-linejoin:miter;stroke-miterlimit:4;stroke-dasharray:none;stroke-opacity:1" />
      <path
         inkscape:connector-curvature="0"
         id="path4333"
         d="m 358.54393,171.81331 c -38.6566,-3.4201 -55.9089,-3.74538 -199.11899,-3.75423 l -128.945705,-0.008 0,-33.77525 0,-33.77526 226.483585,0.008 226.48359,0.008 -8.21782,2.76035 c -45.41932,15.25628 -79.08193,37.70165 -98.8021,65.8787 -1.96689,2.81038 -3.13443,3.91983 -4.05765,3.85579 -0.71289,-0.0494 -6.9341,-0.58873 -13.82491,-1.19839 z"
         style="display:inline;fill:#c8ffff;fill-opacity:1;stroke:none;stroke-width:3;stroke-miterlimit:4;stroke-dasharray:none;stroke-dashoffset:0;stroke-opacity:1" />
      <path
         sodipodi:nodetypes="cc"
         inkscape:connector-curvature="0"
         id="path4329"
         d="m 30,822.36216 250,0"
         style="display:inline;fill:none;fill-rule:evenodd;stroke:#000000;stroke-width:3;stroke-linecap:butt;stroke-linejoin:miter;stroke-miterlimit:4;stroke-dasharray:none;stroke-opacity:1"
         transform="translate(0,-552.36216)" />
      <path
         sodipodi:nodetypes="cc"
         inkscape:connector-curvature="0"
         id="path3364"
         d="m 280,270 c 203.25204,0 562.24158,84.43666 690,200.00004"
         style="display:inline;fill:none;fill-rule:evenodd;stroke:#000000;stroke-width:3;stroke-linecap:butt;stroke-linejoin:miter;stroke-miterlimit:4;stroke-dasharray:none;stroke-opacity:1" />
      <path
         sodipodi:nodetypes="cc"
         inkscape:connector-curvature="0"
         id="path3364-5"
         d="m 280,170 c 203.25204,0 562.24158,84.43662 690,200"
         style="display:inline;fill:none;fill-rule:evenodd;stroke:#000000;stroke-width:3;stroke-linecap:butt;stroke-linejoin:miter;stroke-miterlimit:4;stroke-dasharray:none;stroke-opacity:1" />
      <path
         sodipodi:nodetypes="cc"
         inkscape:connector-curvature="0"
         id="path4327"
         d="m 30,722.36216 250,0"
         style="display:inline;fill:none;fill-rule:evenodd;stroke:#000000;stroke-width:3;stroke-linecap:butt;stroke-linejoin:miter;stroke-miterlimit:4;stroke-dasharray:none;stroke-opacity:1"
         transform="translate(0,-552.36216)" />
      <path
         inkscape:connector-curvature="0"
         id="path4243"
         d="m 451.13439,181.43025 c 50.64975,7.52333 103.69215,17.8371 156.13857,30.52958"
         style="display:inline;fill:#0000ff;fill-rule:evenodd;stroke:#009600;stroke-width:3;stroke-linecap:butt;stroke-linejoin:miter;stroke-miterlimit:4;stroke-dasharray:none;stroke-opacity:1" />
      <path
         inkscape:connector-curvature="0"
         id="path4245"
         d="m 607.27283,211.85983 c 42.33293,10.24494 84.27758,22.03965 124.26226,35.16761"
         style="display:inline;fill:none;fill-rule:evenodd;stroke:#ff0000;stroke-width:3;stroke-linecap:butt;stroke-linejoin:miter;stroke-miterlimit:4;stroke-dasharray:none;stroke-opacity:1" />
      <path
         inkscape:connector-curvature="0"
         id="path4248"
         d="m 731.53491,247.02744 c 49.68198,16.31183 96.33803,34.68203 136.95323,54.69525"
         style="display:inline;fill:none;fill-rule:evenodd;stroke:#0000ff;stroke-width:3;stroke-linecap:butt;stroke-linejoin:miter;stroke-miterlimit:4;stroke-dasharray:none;stroke-opacity:1" />
      <path
         sodipodi:nodetypes="cc"
         inkscape:connector-curvature="0"
         id="path4223"
         d="m 730,245 240,0"
         style="display:inline;fill:none;fill-rule:evenodd;stroke:#000000;stroke-width:3;stroke-linecap:butt;stroke-linejoin:miter;stroke-miterlimit:4;stroke-dasharray:9, 9;stroke-dashoffset:0;stroke-opacity:1" />
    </g>
  </g>
  <g
     inkscape:groupmode="layer"
     id="layer5"
     inkscape:label="Layer 5"
     style="display:inline"
     transform="translate(0,100)" />
  <g
     inkscape:groupmode="layer"
     id="layer6"
     inkscape:label="Layer 6"
     transform="translate(0,100)">
    <g
       id="g4274"
       transform="translate(1196.7494,48.315966)">
      <path
         id="path4251"
         d="m -484.35454,126.25963 c 11.90654,-29.764487 30.98237,-56.557268 56.01528,-77.762802"
         style="display:inline;fill:none;fill-opacity:1;stroke:#000000;stroke-width:3;stroke-miterlimit:4;stroke-dasharray:none;stroke-dashoffset:0;stroke-opacity:1"
         inkscape:connector-curvature="0" />
      <path
         id="path4249"
         d="M -428.33926,48.496828 -102.57502,178.84458"
         style="display:inline;fill:none;fill-opacity:1;stroke:#000000;stroke-width:3;stroke-miterlimit:4;stroke-dasharray:none;stroke-dashoffset:0;stroke-opacity:1"
         inkscape:connector-curvature="0" />
      <path
         id="path4209"
         d="m -102.57502,178.84458 c 0.75296,7.02667 1.13024,14.08852 1.13024,21.15542 l 0,0 c 0,25.5593 -4.92465,50.55193 -14.20092,73.74095"
         style="display:inline;fill:none;fill-opacity:1;stroke:#000000;stroke-width:3;stroke-miterlimit:4;stroke-dasharray:none;stroke-dashoffset:0;stroke-opacity:1"
         inkscape:connector-curvature="0" />
      <path
         id="path4232"
         d="m -497.42581,221.14771 c 10.8077,100.89595 95.95266,177.40751 197.42581,177.40751 47.02172,0 92.51746,-16.68785 128.3868,-47.09233 L -497.42581,221.14771"
         style="display:inline;fill:none;fill-opacity:1;stroke:#000000;stroke-width:3;stroke-miterlimit:4;stroke-dasharray:none;stroke-dashoffset:0;stroke-opacity:1"
         inkscape:connector-curvature="0" />
      <path
         id="path4230"
         d="m -497.42581,221.14771 c -0.7524,-7.02413 -1.12941,-14.0834 -1.12941,-21.14771 0,-25.55929 4.92463,-50.55168 14.20068,-73.74037"
         style="display:inline;fill:none;fill-opacity:1;stroke:#000000;stroke-width:3;stroke-miterlimit:4;stroke-dasharray:none;stroke-dashoffset:0;stroke-opacity:1"
         inkscape:connector-curvature="0" />
      <path
         id="path4228"
         d="M -484.35454,126.25963 -115.6457,273.74095"
         style="display:inline;fill:#f4e3d7;fill-opacity:1;stroke:#000000;stroke-width:3;stroke-miterlimit:4;stroke-dasharray:9, 9;stroke-dashoffset:0;stroke-opacity:1"
         inkscape:connector-curvature="0" />
      <path
         id="path4202"
         d="m -115.6457,273.74095 c -11.89889,29.74513 -30.95787,56.52264 -55.9675,77.72194"
         style="display:inline;fill:none;fill-opacity:1;stroke:#000000;stroke-width:3;stroke-miterlimit:4;stroke-dasharray:none;stroke-dashoffset:0;stroke-opacity:1"
         inkscape:connector-curvature="0" />
      <path
         id="path4189"
         d="M -428.33926,48.496828 A 198.55522,198.55522 0 0 1 -300,1.4447784 198.55522,198.55522 0 0 1 -102.57502,178.84458"
         style="display:inline;fill:none;fill-opacity:1;stroke:#000000;stroke-width:3;stroke-miterlimit:4;stroke-dasharray:none;stroke-dashoffset:0;stroke-opacity:1"
         inkscape:connector-curvature="0" />
      <path
         inkscape:connector-curvature="0"
         id="path4253"
         d="m -333.65581,284.60235 c -88.90906,-35.54178 -161.77333,-64.71096 -161.92061,-64.82041 -0.14728,-0.10944 -0.5165,-5.79279 -0.82048,-12.62963 -1.01368,-22.79826 2.328,-45.85192 10.06296,-69.42254 2.60188,-7.92867 3.01823,-8.62189 4.834,-8.04861 3.66294,1.15647 5.64031,0.95461 5.95782,-0.6082 0.21519,-1.05918 -0.70081,-1.87148 -2.94597,-2.61245 -3.85737,-1.27304 -3.95007,-0.84131 3.26886,-15.22413 9.24728,-18.424079 21.4662,-35.220863 36.83996,-50.642171 7.35234,-7.375092 10.02417,-9.507711 11.44584,-9.135937 1.02002,0.266743 73.8027,29.26328 161.73928,64.436748 136.30249,54.51919 160.00556,64.26966 160.70414,66.10706 1.34429,3.53574 0.92955,30.74119 -0.65649,43.0641 -4.35913,33.86853 -18.40477,67.98378 -38.95887,94.62658 -5.64819,7.32135 -16.78841,19.50572 -22.76745,24.90139 l -5.13017,4.62962 -161.65282,-64.62142 z m 209.32847,-15.11619 c 0.37876,-1.9667 -8.14787,-5.1721 -9.22866,-3.46931 -1.21801,1.919 -0.94688,2.30256 2.7077,3.83037 4.08303,1.70693 6.14469,1.59278 6.52096,-0.36106 z m -17.43851,-5.00202 c 0,-0.21372 0.22906,-0.98551 0.50902,-1.7151 0.75321,-1.96282 -7.81298,-5.17045 -8.96232,-3.35595 -1.27452,2.01215 -1.05542,2.3309 2.64609,3.84952 3.53335,1.44964 5.80721,1.92794 5.80721,1.22153 z m -16.35959,-7.58522 c 0.31019,-0.80834 0.56398,-1.60999 0.56398,-1.78145 0,-0.17146 -1.91773,-1.04413 -4.26163,-1.93927 -3.63697,-1.38897 -4.38396,-1.43428 -5.09612,-0.30913 -1.28664,2.03277 -1.13288,2.22437 3.08597,3.84542 5.02961,1.93257 5.03688,1.9328 5.7078,0.18443 z m -16.6943,-6.58345 c 0.73127,-1.90563 0.16639,-2.42081 -4.72544,-4.30966 -3.46299,-1.33714 -3.92227,-1.34378 -4.41347,-0.0637 -0.82837,2.1587 -0.82982,2.15697 3.40065,4.03666 4.95938,2.20354 5.02052,2.20713 5.73826,0.33674 l 0,0 z m -16.20546,-8.00773 c 0.007,-0.40144 -1.9377,-1.56658 -4.32338,-2.5892 -3.43688,-1.47322 -4.49494,-1.61107 -5.09524,-0.66384 -1.21592,1.91859 -0.49428,2.74551 3.90076,4.46982 3.96774,1.55665 5.47025,1.22532 5.51786,-1.21678 z m -16.92593,-6.27109 c 0.37876,-1.9667 -8.14787,-5.1721 -9.22865,-3.46931 -1.21802,1.919 -0.94688,2.30255 2.70769,3.83037 4.08303,1.70693 6.14469,1.59278 6.52096,-0.36106 z m -16.71149,-6.57289 c 0.41005,-2.12924 -8.01421,-5.34116 -9.18032,-3.50018 -1.27414,2.01156 -1.05579,2.33009 2.64609,3.86003 4.18583,1.72997 6.15262,1.62166 6.53423,-0.35985 z m -17.08661,-6.01435 c 0.3102,-0.80834 0.56399,-1.61 0.56399,-1.78146 0,-0.17145 -1.91774,-1.04412 -4.26164,-1.93927 -3.63696,-1.38896 -4.38396,-1.43428 -5.09612,-0.30913 -1.28664,2.03278 -1.13288,2.22438 3.08597,3.84542 5.02961,1.93258 5.03689,1.93281 5.7078,0.18444 z m -16.72476,-6.50407 c 0.82266,-2.14379 0.85677,-2.09962 -2.80151,-3.62815 -4.25364,-1.77728 -5.58734,-1.77071 -6.27869,0.0309 -0.39631,1.03276 0.55611,1.92934 3.38491,3.1864 4.92362,2.18797 5.01092,2.19427 5.69529,0.41081 z m -16.17499,-8.08712 c 0.007,-0.40143 -1.93771,-1.56657 -4.32339,-2.5892 -3.43687,-1.47321 -4.49494,-1.61106 -5.09523,-0.66384 -1.21592,1.9186 -0.49429,2.74552 3.90076,4.46982 3.96773,1.55666 5.47025,1.22532 5.51786,-1.21678 z m -16.92593,-6.27109 c 0.37876,-1.9667 -8.14788,-5.1721 -9.22866,-3.46931 -1.21801,1.919 -0.94688,2.30256 2.70769,3.83037 4.08304,1.70693 6.1447,1.59279 6.52097,-0.36106 z m -16.7115,-6.57288 c 0.41005,-2.12924 -8.01421,-5.34116 -9.18031,-3.50019 -1.27415,2.01156 -1.0558,2.3301 2.64609,3.86004 4.18582,1.72996 6.15262,1.62165 6.53422,-0.35985 z m -16.70524,-6.6164 c 0.19093,-0.98399 -1.11008,-1.98483 -4.02934,-3.09971 -3.67723,-1.40434 -4.43404,-1.4526 -5.14579,-0.3281 -1.28676,2.03296 -1.13275,2.22469 3.08597,3.84158 4.50124,1.72518 5.68982,1.64442 6.08916,-0.41377 z m -16.71359,-6.562 c 0.19373,-0.99875 -0.86867,-1.99657 -3.13322,-2.94275 -4.31501,-1.80293 -5.646,-1.80178 -6.33952,0.006 -0.3964,1.033 0.5555,1.928 3.38492,3.18265 4.44984,1.97319 5.66698,1.92412 6.08782,-0.24542 l 0,-5e-5 z m -16.56753,-7.42714 c 0.014,-0.71767 -8.37803,-4.67068 -8.85591,-4.17152 -0.13459,0.1406 -0.38901,1.02986 -0.56535,1.97613 -0.2414,1.29538 0.71252,2.13009 3.86057,3.37813 4.00611,1.58822 5.51292,1.26772 5.56069,-1.18274 z m -16.92593,-6.27109 c 0.37876,-1.9667 -8.14787,-5.1721 -9.22865,-3.46931 -1.21802,1.919 -0.94688,2.30255 2.70769,3.83037 4.08303,1.70693 6.14469,1.59278 6.52096,-0.36106 z m -16.7115,-6.57289 c 0.41006,-2.12923 -8.0142,-5.34116 -9.18031,-3.50018 -1.27415,2.01156 -1.05579,2.33009 2.64609,3.86004 4.18583,1.72996 6.15262,1.62165 6.53422,-0.35986 z m -16.70523,-6.61639 c 0.19093,-0.984 -1.11008,-1.98483 -4.02935,-3.09971 -3.67722,-1.40434 -4.43404,-1.45261 -5.14579,-0.32811 -1.28676,2.03296 -1.13274,2.22469 3.08597,3.84159 4.50125,1.72517 5.68982,1.64441 6.08917,-0.41377 z m -16.7136,-6.56201 c 0.19373,-0.99875 -0.86866,-1.99656 -3.13322,-2.94275 -4.31501,-1.80293 -5.646,-1.80177 -6.33952,0.006 -0.3964,1.03299 0.5555,1.928 3.38492,3.18264 4.44985,1.97319 5.66699,1.92412 6.08782,-0.24541 l 0,-6e-5 z m -16.5533,-6.78511 c 0,-0.75455 -1.94071,-2.2038 -4.3127,-3.22055 -4.76074,-2.04069 -4.66983,-2.04749 -5.12279,0.38314 -0.24131,1.2949 0.71367,2.13176 3.86057,3.38304 4.44535,1.76757 5.57492,1.65702 5.57492,-0.54563 z m -16.93763,-6.92621 c 0.17617,-0.91474 -0.97395,-1.86418 -3.24136,-2.67582 -1.93293,-0.6919 -3.98211,-1.43161 -4.55375,-1.64381 -0.57163,-0.2122 -1.2573,0.44771 -1.52371,1.46647 -0.37967,1.45185 0.24675,2.15836 2.89764,3.26812 3.99287,1.67156 6.04489,1.53895 6.42118,-0.41496 z"
         style="display:inline;fill:#f4e3d7;fill-opacity:1;stroke:none;stroke-width:2.78745961;stroke-miterlimit:4;stroke-dasharray:8.3623786, 8.3623786;stroke-dashoffset:0;stroke-opacity:1" />
      <path
         inkscape:connector-curvature="0"
         id="path4255"
         d="m -313.65919,396.24001 c -49.85858,-4.57249 -91.19683,-23.55005 -125.05875,-57.41196 -27.7961,-27.7961 -45.89528,-61.2094 -53.71434,-99.16323 -1.32648,-6.43877 -2.41178,-12.55242 -2.41178,-13.5859 0,-1.64548 19.77838,6.03294 159.11748,61.77303 87.51462,35.00865 159.3102,63.83012 159.54575,64.04774 1.44183,1.33208 -20.96254,16.1401 -35.56736,23.50801 -19.57461,9.87511 -38.60373,15.9296 -60.00325,19.09121 -9.73104,1.43769 -34.1527,2.45231 -41.90775,1.7411 z"
         style="display:inline;fill:#f4e3d7;fill-opacity:1;stroke:none;stroke-width:3;stroke-miterlimit:4;stroke-dasharray:9, 9;stroke-dashoffset:0;stroke-opacity:1" />
      <path
         inkscape:connector-curvature="0"
         id="path4257"
         d="m -265.20129,111.72044 -159.20783,-63.781077 3.1101,-2.645263 c 6.53722,-5.560169 23.10626,-15.85953 34.7013,-21.570437 20.08583,-9.892871 42.33023,-16.4407829 64.84723,-19.0885834 12.1037,-1.4232873 43.1272,-0.6350783 54.08438,1.374113 55.31626,10.1432054 100.86578,39.8568384 131.89662,86.0410384 10.65512,15.858359 21.78712,41.419899 26.90885,61.788689 1.87072,7.43971 4.14802,21.85703 3.43536,21.74884 -0.31249,-0.0475 -72.2117,-28.78774 -159.77601,-63.86732 z"
         style="display:inline;fill:#eef4d7;fill-opacity:1;stroke:none;stroke-width:3;stroke-miterlimit:4;stroke-dasharray:9, 9;stroke-dashoffset:0;stroke-opacity:1" />
      <path
         inkscape:connector-curvature="0"
         id="path4259"
         d="m -174.28621,348.45098 c -0.76656,-0.41451 -71.2196,-28.62385 -156.56232,-62.68741 -152.22087,-60.75721 -160.24231,-63.97611 -163.06638,-65.43636 -0.76655,-0.39635 -1.66696,-2.34762 -2.0009,-4.33615 -0.59092,-3.51873 -0.23133,-33.34852 0.44681,-37.06501 0.18649,-1.02207 0.69551,-4.36702 1.13114,-7.43322 0.43564,-3.06621 0.84596,-5.78398 0.91183,-6.0395 0.23858,-0.92543 1.48301,-7.00251 1.71241,-8.36238 0.12932,-0.76655 0.50674,-2.22996 0.83874,-3.25203 0.33199,-1.02207 0.796,-2.90361 1.03115,-4.18119 0.23514,-1.27759 1.06925,-4.09989 1.85357,-6.27179 0.78433,-2.17189 1.18434,-3.9489 0.88891,-3.9489 -0.29542,0 -0.10337,-0.52265 0.42679,-1.16144 0.53015,-0.63879 1.01886,-1.46827 1.08602,-1.84328 0.0671,-0.37501 0.5725,-1.97386 1.12299,-3.55299 0.9276,-2.6609 1.28019,-2.84911 4.81498,-2.57019 4.87473,0.38464 5.81756,-1.97789 1.44759,-3.62737 -2.59603,-0.97989 -2.85181,-1.39531 -2.27475,-3.6945 0.64739,-2.57941 7.18429,-16.30352 8.70834,-18.28302 0.44023,-0.57178 1.80482,-2.91881 3.03241,-5.21561 1.2276,-2.296803 2.89682,-4.917104 3.70939,-5.822891 0.81258,-0.905787 2.06693,-2.783845 2.78746,-4.173464 0.72053,-1.389618 2.00243,-3.368625 2.84867,-4.397793 0.84623,-1.029169 3.68031,-4.588989 6.29795,-7.910712 5.0472,-6.404775 21.87168,-23.820227 24.21922,-25.069942 1.13408,-0.603726 28.72582,9.43745 46.45766,16.906854 1.27759,0.538173 3.36818,1.396616 4.64577,1.90765 l 4.64577,1.858306 c 1.27758,0.511034 3.15912,1.235387 4.18118,1.609673 1.02207,0.374285 3.00814,1.15458 4.41348,1.733989 1.40535,0.579409 3.49594,1.415647 4.64577,1.858306 3.21554,1.237917 6.4614,2.546964 9.52382,3.84093 1.5331,0.647783 3.72823,1.539964 4.87805,1.982623 1.14983,0.44266 3.24042,1.278898 4.64577,1.858307 1.40534,0.579409 3.60047,1.471589 4.87805,1.982623 l 4.64577,1.858306 4.64576,1.858307 c 1.27759,0.511034 3.15913,1.235387 4.18119,1.609672 1.02207,0.374285 3.11267,1.210523 4.64577,1.858307 1.5331,0.647783 3.72823,1.539963 4.87805,1.982623 1.14983,0.44266 3.1359,1.222955 4.41348,1.733989 1.27759,0.511035 3.26365,1.29133 4.41348,1.733987 2.6616,1.02466 6.03847,2.37541 9.29153,3.71662 1.40534,0.5794 3.60047,1.47158 4.87805,1.98262 l 4.64577,1.85831 4.64577,1.8583 c 1.27758,0.51104 3.26365,1.29133 4.41347,1.73399 1.14983,0.44266 3.24043,1.2789 4.64577,1.85831 l 5.11034,2.10694 c 1.40535,0.57941 3.39141,1.3597 4.41348,1.73399 2.36587,0.86638 5.74274,2.21714 9.29153,3.71661 1.5331,0.64778 3.72823,1.53996 4.87806,1.98262 l 4.18119,1.60968 c 2.66159,1.02465 6.03847,2.37541 9.29153,3.71661 1.40534,0.57941 3.60047,1.47159 4.87805,1.98262 l 4.64577,1.85831 c 1.27758,0.51103 3.47271,1.40321 4.87805,1.98262 3.93011,1.62034 7.01764,2.84465 9.05924,3.5923 1.02207,0.37428 3.00814,1.15458 4.41348,1.73399 1.40535,0.5794 3.60047,1.47159 4.87806,1.98262 l 4.64576,1.85831 c 1.27759,0.51103 3.26365,1.29132 4.41348,1.73398 1.14983,0.44267 3.34495,1.33484 4.87805,1.98263 1.53311,0.64779 3.72823,1.53996 4.87806,1.98263 l 4.18119,1.60966 c 1.14982,0.44267 3.24042,1.27891 4.64576,1.85831 1.40535,0.57941 3.705,1.52253 5.11035,2.09581 1.40534,0.57329 3.70499,1.64223 5.11034,2.37542 1.40534,0.73319 2.55517,1.09073 2.55517,0.79454 0,-0.29619 1.0453,0.14638 2.32288,0.98349 1.27759,0.8371 2.32289,1.25522 2.32289,0.92915 0,-0.32608 1.04529,0.0921 2.32288,0.92915 1.27758,0.83711 2.32288,1.25523 2.32288,0.92916 0,-0.32608 1.13144,0.14849 2.51431,1.05458 1.38287,0.90609 2.62963,1.56107 2.77059,1.45551 0.14096,-0.10556 1.83183,0.46801 3.75748,1.27459 1.92565,0.80659 3.91931,1.54024 4.43034,1.63034 0.51104,0.0901 1.76539,0.61009 2.78746,1.15552 1.02207,0.54544 7.92103,3.56129 15.33103,6.70188 7.41,3.1406 14.0999,6.10995 14.86645,6.59853 1.15865,0.73851 1.39747,3.9103 1.41588,18.80515 0.0122,9.85424 -0.26926,19.38021 -0.62543,21.16883 -0.35617,1.78862 -0.89879,5.34263 -1.2058,7.8978 -0.69524,5.78614 -1.13633,8.29573 -2.28635,13.00815 -0.49885,2.04414 -1.11358,4.76191 -1.36606,6.03949 -0.25249,1.27759 -1.78065,6.29502 -3.39593,11.14984 -1.61529,4.85483 -3.0404,9.24508 -3.16695,9.75611 -0.12653,0.51104 -1.17332,3.01975 -2.3262,5.57492 -1.15287,2.55517 -2.18499,5.06389 -2.29361,5.57492 -0.20893,0.98302 -7.31235,14.79461 -10.03531,19.51222 -0.8849,1.5331 -1.87815,3.51916 -2.20723,4.41347 -0.32909,0.89431 -0.9677,1.62602 -1.41913,1.62602 -0.45142,0 -0.82078,0.54834 -0.82078,1.21853 0,0.67019 -0.83624,2.11612 -1.85831,3.21319 -1.02207,1.09706 -1.8583,2.25106 -1.8583,2.56445 0,0.31339 -0.52265,1.11588 -1.16145,1.78331 -0.63879,0.66743 -1.78862,2.13792 -2.55517,3.26777 -2.77526,4.09054 -10.27669,12.59019 -19.25757,21.82017 -8.38851,8.62119 -10.25098,9.95431 -12.33363,8.8281 z m 49.5697,-78.43815 c 0.59002,-1.53756 -0.3858,-2.33461 -4.72024,-3.85553 -2.40595,-0.84422 -3.21623,-0.79514 -4.08131,0.24722 -1.29121,1.55582 -1.23557,1.62125 2.90204,3.41267 4.20996,1.82276 5.26174,1.85763 5.89951,0.19564 z m -16.74024,-6.46371 c 0.5704,-1.48645 -2.2707,-3.6398 -6.01944,-4.5623 -1.69806,-0.41786 -2.61459,-0.19766 -2.96368,0.71205 -0.68166,1.77638 3.09099,4.20252 7.87774,5.06607 0.32861,0.0593 0.82602,-0.48784 1.10538,-1.21582 z m -17.03386,-5.56905 c 0,-0.21373 0.22906,-0.98552 0.50903,-1.7151 0.74007,-1.92858 -7.81733,-5.17676 -8.9234,-3.38711 -0.97561,1.57856 0.66322,3.63248 2.89839,3.63248 0.92933,0 1.94811,0.41812 2.26394,0.92916 0.55144,0.89224 3.25204,1.34115 3.25204,0.54057 z m -17.33729,-10.29308 c -3.2736,-2.39966 -8.679,-2.68426 -8.679,-0.45694 0,0.76861 4.17809,2.98907 7.43323,3.95042 2.25203,0.66511 3.21914,-2.04693 1.24577,-3.49348 z m -15.18307,-4.58132 c 0,-1.45619 -4.91438,-4.24924 -7.47657,-4.24924 -3.2392,0 -2.72879,2.59318 0.79857,4.05722 4.36064,1.80988 6.678,1.87652 6.678,0.19202 z m -17.32932,-6.54236 c 0.59101,-1.54017 -0.38499,-2.33441 -4.75073,-3.866 -2.56456,-0.8997 -3.1663,-0.82918 -3.90017,0.45705 -0.69554,1.21905 -0.18592,1.82991 2.56784,3.078 4.34636,1.96989 5.43148,2.02893 6.08306,0.33095 z m -16.74025,-6.46371 c 0.5704,-1.48645 -2.2707,-3.6398 -6.01943,-4.5623 -1.69939,-0.41818 -2.61458,-0.19769 -2.96452,0.71424 -0.61021,1.59018 1.1284,3.16507 4.66655,4.22712 3.67434,1.10293 3.7513,1.09618 4.3174,-0.37906 z m -17.03386,-5.56905 c 0,-0.21372 0.22907,-0.98551 0.50903,-1.71509 0.74007,-1.92858 -7.81733,-5.17677 -8.9234,-3.38712 -0.9756,1.57857 0.66323,3.63249 2.89839,3.63249 0.92933,0 1.94811,0.41812 2.26395,0.92915 0.55143,0.89225 3.25203,1.34115 3.25203,0.54057 z m -17.33729,-10.33532 c -0.94069,-0.71279 -2.12847,-1.31499 -2.6395,-1.33822 -0.51103,-0.0232 -1.81226,-0.27928 -2.89161,-0.56899 -1.28093,-0.34382 -2.15482,-0.0255 -2.51635,0.91667 -0.51698,1.34722 2.23234,3.17679 6.80169,4.52627 2.25829,0.66694 3.21366,-2.04459 1.24577,-3.53573 z m -15.18307,-4.56353 c 0,-1.60713 -5.71059,-4.51474 -7.99652,-4.07152 -2.92595,0.56732 -2.35215,2.38361 1.22105,3.86508 4.47322,1.8546 6.77547,1.92475 6.77547,0.20644 z m -17.34397,-6.47973 c 0.65604,-1.7096 -0.91677,-2.93695 -4.83949,-3.77657 -2.22478,-0.4762 -3.36566,-0.30491 -3.92696,0.58957 -0.57425,0.91512 0.15806,1.68764 2.67124,2.81787 4.36042,1.96097 5.45883,2.0275 6.09521,0.36913 z m -16.72559,-6.50188 c 0.57971,-1.51074 -2.28485,-3.64289 -6.18553,-4.60399 -2.35116,-0.5793 -2.593,-0.42532 -2.32289,1.47904 0.20929,1.47551 1.29618,2.46487 3.55355,3.23467 4.24097,1.44624 4.35879,1.44363 4.95487,-0.10972 z m -16.6687,-6.65019 c 0.3102,-0.80835 0.56399,-1.58778 0.56399,-1.73208 0,-0.14428 -1.92885,-0.99898 -4.28633,-1.89931 -3.5704,-1.36356 -4.4175,-1.42473 -5.07165,-0.36629 -0.98296,1.59047 0.12364,2.73382 4.01466,4.14796 4.14361,1.50592 4.14379,1.50592 4.77933,-0.15028 z m -17.70245,-9.25418 c -0.9407,-0.71279 -2.12847,-1.315 -2.63951,-1.33823 -0.51103,-0.0232 -1.86992,-0.29435 -3.01974,-0.6025 -1.65792,-0.4443 -2.0906,-0.17564 -2.0906,1.29806 0,1.09708 0.85638,2.14948 2.0906,2.56914 1.14982,0.39095 2.92683,0.99248 3.9489,1.33671 2.64282,0.89013 3.93585,-1.57685 1.71035,-3.26318 z m -15.44542,-4.74795 c 0.40404,-1.21358 -4.71282,-4.04037 -7.31363,-4.04037 -2.80931,0 -1.94779,2.77533 1.30419,4.20139 3.38886,1.48609 5.47973,1.43007 6.00944,-0.16102 z m -16.87188,-5.98783 c 0.99806,-1.6149 -1.69825,-3.61749 -5.20397,-3.86508 -4.29043,-0.30301 -4.67348,1.26064 -0.787,3.21275 3.73358,1.87531 5.14044,2.0285 5.99097,0.65233 z m -16.57133,-7.0405 c 0.4153,-1.24591 -3.38403,-3.75205 -6.31601,-4.16622 -1.74165,-0.24603 -2.2549,0.10445 -2.2549,1.53977 0,1.29366 0.98813,2.19439 3.25203,2.9644 3.57462,1.21581 4.82749,1.1362 5.31888,-0.33795 z m -17.01083,-6.47605 c 0.70773,-1.84432 0.90045,-1.65348 -3.52026,-3.48597 -4.70823,-1.95169 -5.41746,-1.88406 -5.06149,0.48271 0.19328,1.28511 1.43191,2.38143 3.54895,3.14118 4.42188,1.58691 4.37038,1.58832 5.0328,-0.13792 z m -17.72433,-9.19719 c -0.94069,-0.71279 -2.12847,-1.31499 -2.6395,-1.33822 -0.51104,-0.0232 -1.86992,-0.29436 -3.01975,-0.6025 -1.65791,-0.4443 -2.09059,-0.17565 -2.09059,1.29805 0,1.09708 0.85637,2.14949 2.09059,2.56914 1.14983,0.39095 2.92683,0.99248 3.9489,1.33672 2.64283,0.89013 3.93586,-1.57685 1.71035,-3.26319 z m -15.18307,-4.53907 c 0,-1.48293 -4.93206,-4.24924 -7.57598,-4.24924 -2.81113,0 -1.94678,2.77666 1.3042,4.18967 3.91074,1.69978 6.27178,1.7222 6.27178,0.0596 z m -17.1393,-6.18851 c 0.34336,-0.55556 0.17241,-1.46199 -0.37989,-2.01428 -1.31166,-1.31166 -7.35629,-3.38162 -7.99876,-2.73914 -1.28564,1.28563 -0.22541,3.0901 2.52141,4.29135 3.76383,1.646 5.06223,1.74843 5.85724,0.46207 z"
         style="display:inline;fill:#ffffff;fill-opacity:1;stroke:none;stroke-width:3;stroke-miterlimit:4;stroke-dasharray:9, 9;stroke-dashoffset:0;stroke-opacity:1" />
    </g>
  </g>
</svg>
